# xmcd
#
# Track frame offsets: 
#        150
#        17869
#        33964
#        53002
#        69465
#        89074
#        105532
#        120049
#        135335
#        151488
#        166333
#        177584
#        192982
#
# Disc length: 2785 seconds
#
# Revision: 0
# Processed by: cddbd v1.5.2PL0 Copyright (c) Steve Scherf et al.
# Submitted via: ExactAudioCopy v0.99pb5
#
DISCID=a40adf0d
DTITLE=Алеся Унукоўская - не разбіцца
DYEAR=2011
DGENRE=Contemporary Christian
TTITLE0=Толькі Бог, толькі ты
TTITLE1=Кліч
TTITLE2=Нябёсы
TTITLE3=Хэй, эврыбадзі
TTITLE4=Мой доўгі шлях
TTITLE5=Я ехала дамоў
TTITLE6=Не разбіцца
TTITLE7=Смакоўніца
TTITLE8=А я свабодны
TTITLE9=Царства Бога
TTITLE10=Золатка
TTITLE11=Госпад мой мяне знайшоў
TTITLE12=Зоркі далёка
EXTD=
EXTT0=
EXTT1=
EXTT2=
EXTT3=
EXTT4=
EXTT5=
EXTT6=
EXTT7=
EXTT8=
EXTT9=
EXTT10=
EXTT11=
EXTT12=
PLAYORDER=
